<svg width="30" height="30" viewBox="0 0 30 30" fill="none" xmlns="http://www.w3.org/2000/svg">
<circle cx="15" cy="15" r="15" fill="url(#paint0_radial)"/>
<path d="M10.5233 18.0857V17.8045L10.283 17.6585C7.98863 16.2637 6.5 13.8954 6.5 11.2286C6.5 7.00143 10.2625 3.5 15 3.5C19.7375 3.5 23.5 7.00143 23.5 11.2286C23.5 12.7493 23.1951 14.0271 22.5728 15.0783C21.9522 16.1264 20.9952 16.9843 19.6311 17.6343L19.3462 17.7701V18.0857V24.2519L19.3458 24.2586C19.3453 24.2682 19.3439 24.2866 19.3406 24.3124C19.3341 24.3641 19.3202 24.4446 19.2908 24.5445C19.2322 24.7434 19.1125 25.0181 18.8657 25.2975C18.3831 25.8438 17.3288 26.5 15 26.5C12.6728 26.5 11.5783 25.8443 11.0603 25.2879C10.7961 25.004 10.6613 24.7251 10.5925 24.5239C10.558 24.4229 10.5401 24.3415 10.531 24.2894C10.5267 24.2646 10.5244 24.2466 10.5233 24.2365V18.0857Z" fill="#2B3D54" stroke="#2B3D54"/>
<rect x="12" y="20" width="6" height="2" rx="0.5" fill="#EBEDEF"/>
<rect x="16" y="13" width="6" height="2" rx="1" transform="rotate(90 16 13)" fill="#EBEDEF"/>
<rect x="18.2687" y="9.60397" width="5.58092" height="2" rx="1" transform="rotate(120 18.2687 9.60397)" fill="#EBEDEF"/>
<rect x="13.2466" y="8.62332" width="5.71175" height="2" rx="1" transform="rotate(60 13.2466 8.62332)" fill="#EBEDEF"/>
<rect x="12" y="23" width="6" height="2" rx="0.5" fill="#EBEDEF"/>
<defs>
<radialGradient id="paint0_radial" cx="0" cy="0" r="1" gradientUnits="userSpaceOnUse" gradientTransform="translate(15 9.5) rotate(90) scale(21)">
<stop stop-color="white"/>
<stop offset="1" stop-color="white" stop-opacity="0.2"/>
</radialGradient>
</defs>
</svg>
